<svg xmlns="http://www.w3.org/2000/svg" xmlns:xlink="http://www.w3.org/1999/xlink" width="165" height="39" viewBox="0 0 165 39">
  <defs>
    <filter id="Rectangle_12">
      <feOffset dx="0.5" dy="0.5" input="SourceAlpha"/>
      <feGaussianBlur stdDeviation="0.25" result="blur"/>
      <feFlood flood-color="#fff" flood-opacity="0.565" result="color"/>
      <feComposite operator="out" in="SourceGraphic" in2="blur"/>
      <feComposite operator="in" in="color"/>
      <feComposite operator="in" in2="SourceGraphic"/>
    </filter>
    <clipPath id="clip-path">
      <rect id="Rectangle_11" data-name="Rectangle 11" width="144.882" height="19.386" fill="#fff"/>
    </clipPath>
  </defs>
  <g id="Group_26" data-name="Group 26" transform="translate(-1735 -20)">
    <g data-type="innerShadowGroup">
      <rect id="Rectangle_12-2" data-name="Rectangle 12" width="165" height="39" rx="13" transform="translate(1735 20)"/>
      <g transform="matrix(1, 0, 0, 1, 1735, 20)" filter="url(#Rectangle_12)">
        <rect id="Rectangle_12-3" data-name="Rectangle 12" width="165" height="39" rx="13" fill="#fff"/>
      </g>
    </g>
    <g id="Group_25" data-name="Group 25" transform="translate(1745 30)">
      <path id="Path_46" data-name="Path 46" d="M6.834,3.311l1.177.372v3.7h-4v-3.7l1.158-.372V2.133H0V3.311l1.176.372V13.3L0,13.672v1.176H5.172V13.673L4.015,13.3V8.911h4V13.3l-1.177.374v1.175h5.173V13.673L10.846,13.3V3.683l1.159-.372V2.135H6.834Z" transform="translate(0 0.853)" fill="#fff"/>
      <g id="Group_24" data-name="Group 24" transform="translate(0 0)">
        <g id="Group_23" data-name="Group 23" clip-path="url(#clip-path)">
          <path id="Path_47" data-name="Path 47" d="M9.2,9.376c0-2.913,1.718-4.761,4.463-4.761s4.46,1.849,4.46,4.761-1.718,4.742-4.462,4.742S9.2,12.288,9.2,9.376m6.311,0C15.513,7.1,14.877,6,13.665,6s-1.849,1.1-1.849,3.379.634,3.4,1.849,3.4,1.848-1.12,1.848-3.4" transform="translate(3.68 1.845)" fill="#fff"/>
          <path id="Path_48" data-name="Path 48" d="M15.643,4.815h4.481V5.973l-.972.3L20.814,10.7,22.1,7.3l-.41-1.028-.748-.3V4.815h4.389V5.973l-.99.3L26,10.716l1.663-4.443-.99-.3V4.815h3.547V5.973l-.766.318-3.025,7.487H24.716L22.944,9.39,21.15,13.778H19.433L16.389,6.271l-.746-.3Z" transform="translate(6.256 1.925)" fill="#fff"/>
          <path id="Path_49" data-name="Path 49" d="M31.1,12.813a3.52,3.52,0,0,1-2.745,1.306A2.164,2.164,0,0,1,26.045,11.8c0-2.166,2.446-3.155,5.041-3.342V7.7c0-1.046-.542-1.364-1.27-1.364a4.266,4.266,0,0,0-2.668,1.14l-.729-1.064a6.868,6.868,0,0,1,4.407-1.793c1.66,0,2.762.748,2.762,2.615v4.518c0,.448.076.634.466.634a1.58,1.58,0,0,0,.56-.148V13.41a3.113,3.113,0,0,1-1.884.71A1.457,1.457,0,0,1,31.1,12.813m-1.606-.3a1.858,1.858,0,0,0,1.588-.972V9.659c-1.4.056-2.689.5-2.689,1.7a1.055,1.055,0,0,0,1.1,1.158" transform="translate(10.416 1.846)" fill="#fff"/>
          <path id="Path_50" data-name="Path 50" d="M32.325,12.731l1.046-.318V6.57l-1.046-.3V5.151l3.529-.521V6.086A3.54,3.54,0,0,1,38.748,4.63V7.5l-.728.224a1.038,1.038,0,0,0-1.008-.914,1.488,1.488,0,0,0-1.158.54v5.061l1.27.316v1.12h-4.8Z" transform="translate(12.928 1.851)" fill="#fff"/>
          <path id="Path_51" data-name="Path 51" d="M37.327,10.42c0-3.323,2.034-4.743,3.882-4.743a2.619,2.619,0,0,1,2.147.934V3.885l-1.046-.28V2.485l3.549-.522V13.388l1.044.28v1.121l-3.416.41-.094-1.158a3.167,3.167,0,0,1-2.558,1.138c-1.9,0-3.51-1.66-3.508-4.76m4.592-3.211c-1.212,0-1.96,1.12-1.961,3.043,0,2.11.729,3.36,1.961,3.36a1.609,1.609,0,0,0,1.438-.8V8.067a1.475,1.475,0,0,0-1.438-.858" transform="translate(14.928 0.785)" fill="#fff"/>
          <path id="Path_52" data-name="Path 52" d="M47.635,14v-3.21l1.382-.412.748,2.558a3.375,3.375,0,0,0,2.034.784c1.382,0,2.128-.69,2.128-1.66,0-1.028-.448-1.457-2.37-2.371-2.838-1.308-3.7-2.447-3.7-4.257,0-2.52,2.2-3.491,4.386-3.491a6.757,6.757,0,0,1,3.734.972V5.876l-1.232.374-.69-2.334a2.865,2.865,0,0,0-1.68-.486c-1.009,0-1.9.542-1.9,1.474,0,.841.391,1.252,2.166,2.073,2.65,1.176,3.976,2.278,3.976,4.295,0,2.52-1.924,3.938-4.743,3.938A7.379,7.379,0,0,1,47.635,14" transform="translate(19.051 0.774)" fill="#fff"/>
          <path id="Path_53" data-name="Path 53" d="M55.6,12.79V6.983h-1.14V5.826a3.279,3.279,0,0,0,2.446-2.782h1.176V5.527h2.054V6.983H58.084v5.079c0,.9.428,1.12,1.009,1.12a2.774,2.774,0,0,0,1.176-.242v1.25a6.038,6.038,0,0,1-2.429.58c-1.194,0-2.238-.524-2.238-1.98" transform="translate(21.781 1.217)" fill="#fff"/>
          <path id="Path_54" data-name="Path 54" d="M63.384,13.779V14.9H58.81v-1.12l1.046-.318V7.618l-1.046-.3V6.2l3.529-.521v7.785ZM61.088,5A1.494,1.494,0,1,1,62.6,3.511,1.489,1.489,0,0,1,61.088,5" transform="translate(23.52 0.806)" fill="#fff"/>
          <path id="Path_55" data-name="Path 55" d="M62.37,12.733l1.046-.318V6.572l-1.046-.3V5.153L65.9,4.632V6.088a3.54,3.54,0,0,1,2.894-1.456V7.506l-.728.224a1.038,1.038,0,0,0-1.008-.914,1.488,1.488,0,0,0-1.158.54v5.061l1.27.316v1.12h-4.8Z" transform="translate(24.944 1.852)" fill="#fff"/>
          <path id="Path_56" data-name="Path 56" d="M71.826,13.8v1.12H67.251V13.8l1.047-.318v-9.6l-1.046-.279V2.487l3.528-.522V13.483Z" transform="translate(26.896 0.785)" fill="#fff"/>
          <path id="Path_57" data-name="Path 57" d="M75.386,13.78V14.9H70.812V13.78l1.046-.318V7.619l-1.046-.3V6.2l3.529-.521v7.785Zm-2.3-8.775A1.494,1.494,0,1,1,74.6,3.512,1.489,1.489,0,0,1,73.09,5.005" transform="translate(28.32 0.807)" fill="#fff"/>
          <path id="Path_58" data-name="Path 58" d="M74.372,12.74l1.046-.318V6.579l-1.046-.3V5.159L77.9,4.639V6.113a5.046,5.046,0,0,1,3.211-1.494c1.138,0,2.072.617,2.072,2.39v5.415l1.064.316v1.121H79.655V12.74l1.046-.316V7.774c0-.878-.43-1.2-.988-1.2a2.471,2.471,0,0,0-1.812.934v4.911l1.046.316v1.12H74.372Z" transform="translate(29.744 1.847)" fill="#fff"/>
          <path id="Path_59" data-name="Path 59" d="M82.456,11.62l1.513-1.287a2.774,2.774,0,0,1-2.036-2.727c0-1.81,1.42-2.987,3.6-2.986a4.382,4.382,0,0,1,2.426.652l2.11-.652V6.45H88.934a2.924,2.924,0,0,1,.224,1.158c0,1.792-1.438,2.95-3.622,2.95l-.841.616c3.343.224,5.209,1.4,5.209,3.3,0,1.774-1.625,3.063-4.127,3.063-2.744,0-4.126-.822-4.126-2.335,0-1.27,1.233-2.258,3.343-2.482a18.05,18.05,0,0,0-2.539-.206Zm3.322,4.557a1.482,1.482,0,0,0,1.681-1.513,1.652,1.652,0,0,0-1.064-1.512c-1.308.038-2.3.654-2.3,1.7,0,.8.6,1.326,1.68,1.326M85.537,5.908c-.878,0-1.364.616-1.364,1.718,0,1.082.486,1.7,1.364,1.7.9,0,1.4-.615,1.4-1.7,0-1.1-.5-1.718-1.4-1.718" transform="translate(32.655 1.847)" fill="#fff"/>
          <path id="Path_60" data-name="Path 60" d="M96.331,7.006h-1.8V6.233a2.6,2.6,0,0,1,2.6-2.6h9.942v1.8H97.132a.8.8,0,0,0-.8.8Z" transform="translate(37.808 1.454)" fill="#fff"/>
          <path id="Path_61" data-name="Path 61" d="M95.048,7.733h-1.8V6.4a4.59,4.59,0,0,1,4.585-4.585h9.751v1.8H97.837A2.793,2.793,0,0,0,95.048,6.4Z" transform="translate(37.295 0.727)" fill="#fff"/>
          <path id="Path_62" data-name="Path 62" d="M93.765,8.46h-1.8V6.574A6.581,6.581,0,0,1,98.542,0H108.1V1.8H98.542a4.783,4.783,0,0,0-4.777,4.778Z" transform="translate(36.782 0)" fill="#fff"/>
          <path id="Path_63" data-name="Path 63" d="M101.913,8.837H91.969v-1.8h9.944a.8.8,0,0,0,.8-.8V5.467h1.8V6.24a2.6,2.6,0,0,1-2.6,2.6" transform="translate(36.782 2.186)" fill="#fff"/>
          <path id="Path_64" data-name="Path 64" d="M101.72,11.381H91.969v-1.8h9.751A2.793,2.793,0,0,0,104.508,6.8V5.466h1.8V6.8a4.59,4.59,0,0,1-4.585,4.585" transform="translate(36.782 2.186)" fill="#fff"/>
          <path id="Path_65" data-name="Path 65" d="M101.528,13.926H91.969v-1.8h9.559A4.782,4.782,0,0,0,106.3,7.352V5.466h1.8V7.352a6.581,6.581,0,0,1-6.574,6.574" transform="translate(36.782 2.186)" fill="#fff"/>
        </g>
      </g>
    </g>
  </g>
</svg>
